<?xml version="1.0" encoding="UTF-8"?>
<svg width="185px" height="80px" viewBox="0 0 185 80" version="1.1" xmlns="http://www.w3.org/2000/svg" xmlns:xlink="http://www.w3.org/1999/xlink">
    <!-- Generator: Sketch 50.2 (55047) - http://www.bohemiancoding.com/sketch -->
    <title>Group</title>
    <desc>Created with Sketch.</desc>
    <defs></defs>
    <g id="Page-1" stroke="none" stroke-width="1" fill="none" fill-rule="evenodd">
        <g id="1" transform="translate(-114.000000, -326.000000)" fill="#FFFFFF">
            <g id="Group" transform="translate(-124.000000, 326.000000)">
                <text id="ТОРГОВАЯ-ПЛАТФОРМА" font-family="AvenirNextCondensed-DemiBold, Avenir Next Condensed" font-size="19.807874" font-style="condensed" font-weight="500" letter-spacing="0.123799214">
                    <tspan x="239.25488" y="77.3385827">ТОРГОВАЯ ПЛАТФОРМА</tspan>
                </text>
                <path d="M247.750395,1.68740817 L242.385827,50.6222451 L248.756252,50.6222451 L249.091537,38.3885359 L255.797247,38.3885359 L256.635461,50.6222451 L262.502958,50.6222451 L257.473675,1.68740817 L247.750395,1.68740817 Z M250.767965,30.3733471 L252.444392,8.43704085 L254.12082,30.3733471 L250.767965,30.3733471 Z M275.914378,50.6222451 L282.620089,50.6222451 L282.620089,8.67809916 L292.678654,8.67809916 L292.678654,1.68740817 L275.914378,1.68740817 L275.914378,50.6222451 Z M313.131071,1.68740817 L306.090075,1.68740817 L306.090075,50.6222451 L312.795785,50.6222451 L312.795785,31.3978449 C320.339709,31.3978449 324.530778,30.5240085 324.530778,22.6594812 L324.530778,10.4257719 C324.530778,3.78461547 321.01028,1.68740817 313.131071,1.68740817 Z M317.825068,23.6200844 C317.825068,25.4758341 314.807498,25.3071296 312.795785,25.3071296 L312.795785,6.74963268 C315.645712,6.74963268 317.825068,7.42445075 317.825068,11.8107682 L317.825068,23.6200844 Z M346.994908,0 C342.636196,0 338.109841,0.87279733 337.942199,11.3463653 L337.942199,39.2758798 C337.942199,49.5748883 342.636196,50.6222451 346.994908,50.6222451 C351.353619,50.6222451 356.382902,49.5748883 356.382902,39.2758798 L356.382902,11.3463653 C356.382902,1.74559466 351.353619,0 346.994908,0 Z M349.677192,42.2142975 C349.677192,46.6752616 344.647909,46.6752616 344.647909,42.2142975 L344.647909,10.0953558 C344.647909,5.63439165 349.677192,5.63439165 349.677192,10.0953558 L349.677192,42.2142975 Z M380.188174,0 C373.147178,0 369.961965,2.76663389 369.961965,10.2019625 L369.794323,17.8102057 L376.500033,17.8102057 L376.500033,9.16447477 C376.500033,6.91658473 377.673532,5.87909702 379.34996,5.87909702 C380.691102,5.87909702 381.529316,6.57075549 381.529316,9.16447477 L381.529316,14.3519133 C381.529316,22.651815 369.961965,31.6433751 369.961965,45.8223738 L369.961965,48.934837 L388.235026,48.934837 L388.235026,42.0182522 L378.176461,42.0182522 C378.176461,31.8162898 388.235026,24.5538758 388.235026,11.2394502 C388.235026,5.53326778 386.893884,0 380.188174,0 Z M416.734295,31.3978449 L416.734295,1.68740817 L407.3463,1.68740817 L398.293592,31.3978449 L398.293592,38.3885359 L410.028585,38.3885359 L410.028585,50.6222451 L416.734295,50.6222451 L416.734295,38.3885359 L420.08715,38.3885359 L420.08715,31.3978449 L416.734295,31.3978449 Z M410.028585,30.3733471 L404.999302,30.3733471 C407.513943,22.7800103 408.5198,16.3678593 410.028585,8.43704085 L410.028585,30.3733471 Z" id="logo-copy" fill-rule="nonzero"></path>
            </g>
        </g>
    </g>
</svg>