<?xml version="1.0" encoding="UTF-8"?>
<svg width="20px" height="20px" viewBox="0 0 20 20" version="1.1" xmlns="http://www.w3.org/2000/svg" xmlns:xlink="http://www.w3.org/1999/xlink">
    <!-- Generator: Sketch 50.2 (55047) - http://www.bohemiancoding.com/sketch -->
    <title>icon_20pt copy</title>
    <desc>Created with Sketch.</desc>
    <defs>
        <rect id="path-1" x="0" y="0" width="20" height="20"></rect>
        <ellipse id="path-3" cx="8.45679012" cy="7.90123457" rx="8.45679012" ry="7.90123457"></ellipse>
        <rect id="path-5" x="0" y="0" width="16.1728395" height="15.6790123" rx="3.90625"></rect>
    </defs>
    <g id="icon_20pt-copy" stroke="none" stroke-width="1" fill="none" fill-rule="evenodd">
        <g id="Icon">
            <g id="Group-7" stroke-width="1">
                <g id="Group-2">
                    <g id="Group-Copy-2">
                        <g id="Rectangle-10">
                            <mask id="mask-2" fill="white">
                                <use xlink:href="#path-1"></use>
                            </mask>
                            <use id="Mask" fill="#0B8EFF" xlink:href="#path-1"></use>
                            <path d="M22.6445911,2.8696479 C22.9419105,2.9623486 23.1851325,3.21648627 23.3305463,3.5459612 C23.676914,3.15635997 24.0579041,2.85314546 24.4228813,2.67348404 C24.7858389,2.49482713 25.1212429,2.43627932 25.4074542,2.55595793 C25.6938099,2.67563654 25.8711051,2.98889602 25.8928884,3.3931342 C25.9148159,3.79966837 25.7906082,4.30277774 25.5414716,4.82884702 C25.8931769,4.76800322 26.2985468,4.82511603 26.633518,5.00506445 C26.9686335,5.18515636 27.1727611,5.43800254 27.2575858,5.70577266 C27.342122,5.97282529 27.2989884,6.24920539 27.1113064,6.47249067 C26.20146,5.9708163 25.2815155,5.4791869 24.3301223,5.0489753 C23.3782963,4.61876371 22.3955988,4.25427489 21.4075636,3.91174151 C21.4535825,3.53677723 21.6114027,3.23270172 21.8339955,3.04371284 C22.0586079,2.85300196 22.3472717,2.77694721 22.6445911,2.8696479" id="Fill-137" fill="#FFFFFF" mask="url(#mask-2)"></path>
                            <g id="Group-33" mask="url(#mask-2)">
                                <g transform="translate(-10.407320, 19.903624)">
                                    <path d="M3.3274662,11.1980735 C8.77527537,-2.38826582 29.1605549,-2.46961494 33.895028,11.1980735 L3.3274662,11.1980735" id="Fill-30" fill="#E8EAF0"></path>
                                    <g id="Group-32" stroke-width="1" fill="none" transform="translate(0.043348, 7.260751)">
                                        <path d="M0,3.65908349 C4.36004853,-1.34371479 16.2320396,-1.19534134 20.2941664,3.97390225 C16.136482,6.59777568 4.7456421,6.25118727 0,3.65908349" id="Fill-31" fill="#C7CDD7"></path>
                                        <path d="M0.0842081592,3.68502918 C4.401037,-1.00765626 15.5605909,-0.656725802 18.3573787,4.82238072 C13.3682862,6.46916976 4.2418045,5.93031501 0.0842081592,3.68502918" id="Fill-32" fill="#DBE0E9"></path>
                                    </g>
                                    <path d="M22.7446488,0.114276245 C24.2805886,0.406982779 25.9642753,1.07429361 27.4942866,1.84487186 C24.6723329,2.73766145 23.3417973,3.2545761 21.1529116,5.04096385 C25.3980479,6.27647651 27.8753364,8.07995998 28.7583303,8.82951511 L27.2755143,10.8629823 C25.7766565,8.88819504 22.7200049,6.83023939 18.569143,5.6063934 C20.3013037,4.22822384 22.6723446,2.65749636 26.3991463,1.74795758 C25.4136246,1.14209895 24.1113365,0.633385623 22.132621,0.0562893939 C22.336979,0.0726920489 22.540872,0.0918669837 22.7446488,0.114276245" id="Fill-33" fill="#C7CDD7"></path>
                                    <path d="M24.2952978,11.3311575 C28.1590698,3.18586672 38.6086633,3.48536803 42.4000521,11.3311575 C35.0467594,13.1642597 30.3157858,13.1642597 24.2952978,11.3311575" id="Fill-34" fill="#C7CDD7"></path>
                                    <path d="M25.9899256,8.60169932 C30.0520924,4.49940609 38.3319272,5.09908526 40.8843052,11.5260267 C34.3655428,12.9812895 29.8888218,12.8677714 24.2952978,11.1848973 C24.7688752,10.1983135 25.3422935,9.33824428 25.9899256,8.60169932" id="Fill-35" fill="#E8EAF0"></path>
                                </g>
                            </g>
                            <g id="Group-32" mask="url(#mask-2)">
                                <g transform="translate(-10.363972, 27.164376)"></g>
                            </g>
                        </g>
                    </g>
                    <g id="Group" transform="translate(1.358025, 1.975309)">
                        <g id="shutterstock_533507728" transform="translate(0.000000, 0.370370)">
                            <mask id="mask-4" fill="white">
                                <use xlink:href="#path-3"></use>
                            </mask>
                            <g id="Mask"></g>
                            <g mask="url(#mask-4)">
                                <g transform="translate(0.740741, 0.740741)">
                                    <path d="M9.33305065,10.4267198 C9.32905065,10.4219198 9.32495065,10.4170198 9.32095065,10.4122198 C9.32045065,10.4051198 9.31995065,10.3980198 9.31945065,10.3909198 C9.32405065,10.4028198 9.32855065,10.4147198 9.33305065,10.4267198" id="Fill-334" fill="#F0CB85"></path>
                                    <path d="M0.405080033,17.8963554 C0.405151195,17.8926554 0.405151195,17.8888554 0.405222357,17.8851554 C1.17939185,17.8834554 1.95356134,17.8816554 2.72773083,17.8799554 L2.72773083,17.8801554 L0.405080033,17.8963554" id="Fill-675" fill="#A19C4F"></path>
                                    <path d="M11.3158956,19.7868161 C10.9239363,19.7279251 10.5219432,19.6763955 10.1101297,19.6336199 C7.43722039,19.3557447 4.99224242,19.5105988 2.87297211,19.8549253 C6.06180464,20.58138 9.25063717,21.3078347 12.4394697,22.0342894 C12.801968,21.6794845 13.2408942,21.173871 13.6179095,20.5019303 C14.2000844,19.464441 14.3703746,18.501494 14.423746,17.8926886 L11.5510143,17.8798891 C11.4726651,18.5155535 11.394316,19.1512179 11.3158956,19.7868161" id="Fill-713" fill="#E7A77B"></path>
                                    <path d="M3.17683311,19.8634804 C3.03899265,19.2022833 2.9011522,18.5410862 2.76331174,17.8798891 L0.00465244582,17.8926886 C-0.00246373665,18.4046687 0.0321209102,19.0217639 0.162347049,19.710218 C0.269303272,20.2760489 0.418671942,20.772842 0.573377749,21.1915118 C1.9199018,21.3848307 3.32897709,21.5532801 4.79718785,21.6877744 C7.51435981,21.936602 10.0717023,22.0357484 12.4394697,22.0343053 C10.6200042,21.4935933 8.66312514,20.9817458 6.57495256,20.5274629 C5.41067394,20.274192 4.27671027,20.0542792 3.17683311,19.8634804" id="Fill-714" fill="#FFBD86"></path>
                                    <path d="M3.1656607,19.809895 C3.16558954,19.8096297 3.16551838,19.8092318 3.16544721,19.8089665 C3.41259223,19.7714301 3.6639358,19.7364802 3.91940675,19.7046472 C3.91862397,19.7047135 3.91791235,19.7048462 3.91720073,19.7049125 C3.77658496,19.7241449 3.63561339,19.7436426 3.49428601,19.7634056 C3.38441215,19.7787915 3.2748941,19.7943101 3.1656607,19.809895 M6.56940194,19.5068032 C6.77968513,19.4978032 6.99217434,19.4923032 7.20644259,19.4907032 L7.20644259,19.5049032 C7.1950567,19.5048032 7.18367081,19.5047032 7.17221375,19.5046032 C7.09528782,19.5039032 7.01096106,19.5033032 6.91909114,19.5033032 C6.81234841,19.5033032 6.69571418,19.5042032 6.56940194,19.5068032" id="Fill-724" fill="#BB8865"></path>
                                    <path d="M3.16309887,19.8102266 C3.16160448,19.8028652 3.16003892,19.7955038 3.15854452,19.7881424 C3.1455219,19.7896014 3.13627087,19.790331 3.13093373,19.790331 C3.1274468,19.790331 3.12559659,19.7899994 3.12552543,19.7893362 C3.12516962,19.7876119 3.13570157,19.7833675 3.15626734,19.7769346 C3.07500053,19.383068 2.99373373,18.9891351 2.91246693,18.5952022 C2.99679369,18.9998124 3.08112045,19.4043563 3.16544721,19.8089665 C3.16551838,19.8092318 3.16558954,19.8096297 3.1656607,19.809895 C3.16480676,19.8100276 3.16395282,19.8101602 3.16309887,19.8102266" id="Fill-725" fill="#C99978"></path>
                                    <path d="M4.84166399,19.6048376 C4.84137935,19.6017207 4.8410947,19.5988026 4.84081005,19.5956193 C5.44276793,19.5377895 5.96189344,19.5139147 6.38736999,19.5045638 C6.27422269,19.5084766 6.15972331,19.5131189 6.04401418,19.5186897 C5.62536917,19.5387179 5.2241588,19.568296 4.84166399,19.6048376" id="Fill-726" fill="#EFA73B"></path>
                                    <path d="M12.2947265,22.0409213 C10.6826977,22.0390643 8.98321103,21.9902538 7.20644259,21.879568 L7.20644259,21.873135 C8.98577286,21.9840199 10.6872521,22.0325651 12.3014158,22.0342894 C12.2991386,22.0364779 12.2969326,22.0387328 12.2947265,22.0409213" id="Fill-739" fill="#96973D"></path>
                                    <path d="M13.8118966,20.1286225 C14.2378713,19.2399523 14.3757118,18.4343795 14.4231056,17.8993204 L14.4231767,17.8993204 C14.3764946,18.4329205 14.2397927,19.2387586 13.8147431,20.1282909 C13.813818,20.1284235 13.8127506,20.1285562 13.8118966,20.1286225" id="Fill-740" fill="#908B46"></path>
                                    <path d="M13.6129993,20.5163877 C13.6120031,20.5161888 13.6110068,20.5160561 13.6100105,20.5159235 C13.6126435,20.5112812 13.6152765,20.5066389 13.6179095,20.5019303 C13.6884309,20.3762564 13.7529035,20.2516436 13.8118966,20.1286225 C13.8127506,20.1285562 13.813818,20.1284235 13.8147431,20.1282909 C13.7548249,20.2535668 13.6892848,20.3805008 13.6174114,20.5085621 C13.615917,20.5111486 13.6144937,20.5138013 13.6129993,20.5163877" id="Fill-741" fill="#808136"></path>
                                    <g id="Group-6" stroke-width="1" fill="none" transform="translate(0.246914, 0.000000)">
                                        <path d="M15.0824641,5.20694391 C15.0824641,6.18832756 11.7181465,6.9838863 7.56813122,6.9838863 C3.41811593,6.9838863 0.0537983395,6.18832756 0.0537983395,5.20694391 C0.0537983395,4.22562658 3.41811593,3.43006783 7.56813122,3.43006783 C11.7181465,3.43006783 15.0824641,4.22562658 15.0824641,5.20694391" id="Fill-704" fill="#017AE1"></path>
                                        <path d="M5.34980366,10.2352916 C4.76200699,10.7271772 4.15542359,11.0148013 3.68717879,11.1861024 L7.41982998,12.3106017 L7.41982998,12.4098808 L7.5845696,12.3602081 L7.74930922,12.4098808 L7.74930922,12.3106017 L11.4819604,11.1861024 C11.0137156,11.0148013 10.4071322,10.7271772 9.81933554,10.2352916 C9.61410484,10.0635263 9.43904675,9.89030193 9.29031854,9.7246379 C9.24384987,9.10707846 9.19745236,8.48945271 9.15098369,7.87189327 L6.01815552,7.87182695 C5.97168684,8.48945271 5.92528933,9.10707846 5.87882066,9.7246379 C5.73009245,9.89030193 5.55503436,10.0635263 5.34980366,10.2352916" id="Fill-705" fill="#017AE1"></path>
                                        <path d="M10.1011658,10.4617255 C10.1186618,10.4484987 10.1361578,10.4352719 10.1536538,10.422045 C10.9940038,10.7909758 11.8344249,11.1598402 12.6748461,11.5287709 C13.0781913,11.5661747 13.7598504,11.6899916 14.246028,12.1757759 C14.5614172,12.4908559 14.7496402,12.9225904 14.848911,14.86586 C14.878372,15.4428987 14.9043461,16.2402481 14.88805,17.1984865 C13.9110685,17.1942931 12.9340869,17.1900997 11.9570367,17.1858424 L11.9570368,17.185687 C12.1661814,17.185687 12.375326,17.185687 12.5844706,17.185687 C12.3852175,15.9667499 12.1859643,14.7478128 11.9867112,13.5288093 C11.97561,14.0443044 11.9645087,14.5597994 11.9534075,15.0753607 L11.6470558,16.7408877 L11.2718907,16.2145164 C11.324337,15.9105117 11.3768544,15.6065069 11.4293007,15.3025021 L11.4924924,15.3145721 C11.5040917,15.316827 11.5157623,15.3178881 11.5272193,15.3178881 C11.6081303,15.3178881 11.6812135,15.2647668 11.6980077,15.1881687 L11.7085397,15.1404856 C11.7277534,15.0530113 11.6666965,14.966797 11.5729052,14.948891 L11.4929905,14.9336377 C11.7024909,13.7200724 11.9120625,12.5063081 12.1215629,11.2927428 C12.3058009,11.3736516 12.4900388,11.454494 12.674348,11.5354028 C13.0776932,11.5728065 13.7592811,11.6966235 14.2455299,12.1824077 C14.5609191,12.4974877 14.749071,12.9292223 14.8484129,14.8724919 C14.8778027,15.4482042 14.9037056,16.2432324 14.887623,17.1984865 C13.9107847,17.1942421 12.9338751,17.1900641 11.9570368,17.185886 L11.9570368,17.1858424 C11.9451527,17.1857906 11.9332687,17.1857388 11.9213847,17.185687 C11.9030961,17.8269885 11.8848787,18.4683564 11.8665901,19.1096579 C10.4537432,19.1192741 9.04089634,19.1289566 7.62804948,19.139435 C7.61353246,19.1393023 7.59908661,19.1391697 7.54108973,19.1385728 C6.10845987,19.1459342 4.67590118,19.1533619 3.24334248,19.1607233 C3.20683647,18.5023779 3.17025929,17.8440324 3.13368211,17.185687 C2.17990018,17.187146 1.22611824,17.1885387 0.272407465,17.1899314 C0.261804353,16.239187 0.289699788,15.4455515 0.320228211,14.86586 C0.421918459,12.9351909 0.598542108,12.5000078 0.92311119,12.1757759 C1.40928878,11.6899916 2.0909479,11.5661084 2.49429312,11.5287709 C3.33471427,11.1598402 4.17506426,10.7909758 5.01548541,10.422045 C5.86926564,11.0674965 6.72304587,11.712948 7.5768261,12.3583338 C7.57816504,12.3593459 7.57951711,12.360407 7.58079802,12.3613355 C7.58143211,12.3618155 7.58206654,12.3622951 7.58270096,12.3627747 C7.58331765,12.3632671 7.58393489,12.3637271 7.5845696,12.3641872 C7.58577935,12.3632588 7.58706026,12.3623303 7.58834118,12.3613355 C8.42591585,11.7281912 9.26356169,11.0949142 10.1011364,10.4617036 C10.1011462,10.4617109 10.101156,10.4617182 10.1011658,10.4617255 Z" id="Combined-Shape" fill="#017AE1"></path>
                                        <path d="M3.45679012,11.0552526 C3.64108735,12.5109119 3.82538459,13.9665713 4.00974608,15.4222306 L3.50993301,16.4177226 L3.60895743,18.5454274 C6.17568836,18.5987263 8.74241929,18.6520252 11.3091502,18.7052642 C11.3545177,17.9427903 11.3999494,17.1802564 11.4453168,16.4177226 L10.8250808,15.547513 C11.0850119,14.0417886 11.3450072,12.5360043 11.6049383,11.0302201 C11.2588348,10.8630771 10.9127312,10.6958742 10.5666277,10.5287312 C10.3748763,11.9260012 10.1831892,13.3232713 9.99143786,14.7204814 C8.33314834,14.703833 6.67485882,14.6870648 5.01650504,14.6703565 C4.80656813,13.3062036 4.59669549,11.9419909 4.38675858,10.5777782 C4.07676909,10.7369563 3.76677961,10.8961344 3.45679012,11.0552526" id="Fill-710" fill="#017AE1"></path>
                                        <path d="M10.5676733,4.95002539 C10.6645245,4.24127778 10.6470187,3.74760162 10.4386569,3.30976577 C10.4017239,3.23217293 9.4922758,1.40098186 7.62235653,1.36861835 C6.16659908,1.34341726 5.09703686,2.42520737 4.68863914,3.30976577 C4.51165969,3.69308767 4.50824392,4.18251944 4.61014765,4.92515589 C4.49059579,4.97840978 4.41466612,5.17113183 4.39075575,5.28838323 C4.32649662,5.60346323 4.50824392,6.00561963 4.8147379,6.14581729 C4.84170823,6.29271314 4.8701018,6.44624086 4.89998976,6.60719627 C4.97841009,7.03050833 5.09874474,7.56795481 5.55410926,8.04810197 C5.6714972,8.17187057 6.30657683,8.8739564 7.56815091,8.8739564 C8.82972498,8.8739564 9.37947299,8.30455891 9.47889737,8.21436287 C10.0010117,7.74064863 10.1525864,7.15399369 10.2519283,6.66263868 C10.2901422,6.47349783 10.3262212,6.29516693 10.3598808,6.12552378 C10.642749,5.97040442 10.8070617,5.59000054 10.7455779,5.28838323 C10.7245851,5.18532402 10.6633148,5.02383807 10.5676733,4.95002539 Z" id="Fill-708" fill="#017AE1"></path>
                                        <path d="M4.36960479,5.45949693 C4.34263763,4.61853078 4.70649634,3.77713084 4.70649634,3.77713084 C4.94159716,3.10326905 5.10962867,2.64436724 5.54106482,2.51601897 C5.73130946,2.45945759 5.91209561,2.48516731 6.03527095,2.51601897 C6.08127361,2.40369755 6.16374878,2.25104191 6.31766422,2.12129129 C6.78141688,1.73043677 7.50936237,1.87127261 7.89443758,1.94579741 C8.20083535,2.00509671 10.0777725,2.40777103 10.6478615,3.96357639 C10.6478615,3.96357639 10.9507482,4.79022738 10.6683549,5.82409202 C10.6140402,6.02282482 10.5114299,6.17501301 10.5114299,6.17501301 C10.4157702,6.31705087 10.3056361,6.4113421 10.2290367,6.46743604 C10.2599917,4.57914055 9.89820447,4.0415069 9.53871018,3.92337574 C9.04034804,3.75950132 8.65928552,4.43937317 7.65604063,4.47897281 C7.15989981,4.49853891 6.78851074,4.34928898 6.48139642,4.20003904 C6.11495157,4.02200758 5.84001045,3.84397611 5.5537478,3.95255794 C5.20349703,4.08538037 4.86227482,4.63630295 4.9997812,6.57348029 C4.92189197,6.53949003 4.79871663,6.47418067 4.69388502,6.35411293 C4.57278768,6.21554756 4.53602855,6.07244124 4.51825805,5.99958591 C4.47402827,5.81868863 4.3756386,5.64765998 4.36960479,5.45949693 Z" id="Fill-709" fill="#017AE1"></path>
                                        <path d="M10.0763721,0.409451457 C9.52031356,0.228268856 8.65092954,0.0131310963 7.56870051,0.0158501617 C6.5073219,0.0185692271 5.65359349,0.229860504 5.10244515,0.409451457 C4.78406715,1.09943088 4.46561799,1.78947662 4.14723998,2.47945605 L11.0315772,2.47945605 L10.0763721,0.409451457" id="Fill-733" fill="#017AE1"></path>
                                        <path d="M7.51803329,4.32928266 C4.50383189,4.33558293 1.96349707,4.75816548 0.0721580903,5.20694391 C0.0723004139,5.18161018 0.0740794595,5.13777354 0.0855365133,5.08491756 C0.0999823637,5.0182673 0.139121367,4.89484826 0.271340038,4.754319 C1.2021367,3.76524238 2.01124665,3.32176945 2.01124665,3.32176945 C2.49692611,3.05556632 3.21316987,2.72198341 4.14723998,2.47945605 C5.05355698,2.30755806 6.17670406,2.16517188 7.46736608,2.15681572 C8.8627783,2.1478627 10.0695405,2.29807449 11.0258131,2.47945605 C11.3717307,2.57760767 11.7560758,2.70759226 12.1639753,2.88081662 C12.4948067,3.02134588 12.7765363,3.1631352 13.0079546,3.29026808 C13.0079546,3.29026808 13.791304,3.72074256 14.7365465,4.60742315 C14.8145398,4.68057264 14.9308183,4.79994624 15.0181338,4.97867505 C15.0636774,5.07198542 15.0877301,5.15369002 15.1008238,5.20694391 C13.1854322,4.75239576 10.5958534,4.32284974 7.51803329,4.32928266 Z" id="Fill-734" fill="#017AE1"></path>
                                        <path d="M10.2519283,6.66263868 C10.2901422,6.47349783 10.3262212,6.29516693 10.3598808,6.12552378 C10.642749,5.97040442 10.8070617,5.59000054 10.7455779,5.28838323 C10.7287125,5.20575017 10.6034742,5.02605404 10.5379342,4.94361994 C10.5863242,4.7612436 10.5814451,4.62827178 10.5983816,4.46274039 C12.2887596,4.62561904 13.8771251,4.91733029 15.0823929,5.2026332 C15.0824404,5.20608177 15.0822981,5.2097514 15.081966,5.2136421 C15.081966,5.22312566 15.0816102,5.23254292 15.0809697,5.24202649 C15.0579844,5.5241461 14.7568276,5.79015028 14.2397658,6.02538259 C14.1979226,6.04441605 14.1545851,6.06325055 14.1099666,6.0818861 C14.0970152,6.08725791 14.0841349,6.0925634 14.0709699,6.09793522 C14.052966,6.10529659 14.0346062,6.11265796 14.0161753,6.1198867 C14.0062838,6.1237995 13.9965347,6.12764598 13.986572,6.13149246 C13.9708452,6.13759378 13.9546915,6.14376142 13.9386801,6.14979641 C13.922384,6.15589773 13.9062303,6.16193273 13.8896496,6.16803405 C13.8488739,6.18295575 13.8071019,6.19781113 13.7645471,6.21246756 C13.7531612,6.21638036 13.741633,6.22029316 13.7301759,6.22420596 C13.6908946,6.23746969 13.651044,6.25053447 13.6102683,6.26359925 C13.5857886,6.27135853 13.5611666,6.27911782 13.5361176,6.28681078 C13.5169751,6.29277946 13.4976191,6.29861551 13.4781919,6.30451787 C13.4586936,6.31035391 13.4389106,6.31618995 13.4191276,6.322026 C13.3649735,6.33787616 13.3094672,6.35359368 13.2530359,6.36904593 C13.2343203,6.37415247 13.2156048,6.37919269 13.1966046,6.38423291 C13.1307799,6.40187367 13.063532,6.41911653 12.9948608,6.4360941 C12.9873888,6.43788471 12.9799168,6.43974163 12.9724448,6.44159855 C12.8486233,6.47190619 12.7203185,6.50115272 12.587744,6.52927183 C12.5616988,6.5348426 12.5354401,6.54034705 12.509039,6.54578518 C12.4533193,6.55725831 12.3970303,6.5685988 12.3398874,6.57967402 C12.3223104,6.58312259 12.3045911,6.58657116 12.2868007,6.58995341 C12.2241071,6.60189078 12.1606307,6.61362918 12.0963004,6.62516863 C12.0642065,6.63087203 12.0316144,6.63664176 11.9991646,6.64221253 C11.9425909,6.65202769 11.8853768,6.6616439 11.8275934,6.67106115 C11.8024021,6.6751729 11.777282,6.67921834 11.7518061,6.68319746 C11.6630673,6.69732334 11.5728341,6.71098498 11.4814623,6.7241824 C11.4564845,6.72782993 11.4313644,6.73141113 11.4061731,6.73492602 C11.30676,6.74891926 11.2057102,6.76244827 11.1033795,6.77538041 C10.8151741,6.81172304 10.5159386,6.84382128 10.2068828,6.87121089 C10.2234635,6.80024991 10.238194,6.73054899 10.2519283,6.66263868 Z M15.0596834,5.0778584 C15.0511834,5.0550584 15.0417834,5.0314584 15.0315834,5.0072584 C15.0421834,5.0306584 15.0514834,5.0542584 15.0596834,5.0778584" id="Fill-762" fill="#017AE1"></path>
                                    </g>
                                </g>
                            </g>
                        </g>
                        <g id="shutterstock_533507728-copy-3" transform="translate(0.617284, 0.000000)">
                            <mask id="mask-6" fill="white">
                                <use xlink:href="#path-5"></use>
                            </mask>
                            <g id="Mask"></g>
                            <g id="shutterstock_533507728" mask="url(#mask-6)">
                                <g transform="translate(0.370370, 0.123457)">
                                    <path d="M9.33305065,11.1233178 C9.32905065,11.1185178 9.32495065,11.1136178 9.32095065,11.1088178 C9.32045065,11.1017178 9.31995065,11.0946178 9.31945065,11.0875178 C9.32405065,11.0994178 9.32855065,11.1113178 9.33305065,11.1233178" id="Fill-334" fill="#F0CB85"></path>
                                    <path d="M0.405080033,19.0950116 C0.405151195,19.0913116 0.405151195,19.0875116 0.405222357,19.0838116 C1.17939185,19.0821116 1.95356134,19.0803116 2.72773083,19.0786116 L2.72773083,19.0788116 L0.405080033,19.0950116" id="Fill-675" fill="#A19C4F"></path>
                                    <path d="M11.3158956,21.1133065 C10.9239363,21.0504675 10.5219432,20.9954834 10.1101297,20.9498403 C7.43722039,20.6533365 4.99224242,20.8185719 2.87297211,21.1859818 C6.06180464,21.9611373 9.25063717,22.7362929 12.4394697,23.5114485 C12.801968,23.1328578 13.2408942,22.5933484 13.6179095,21.8763613 C14.2000844,20.7693197 14.3703746,19.7418176 14.423746,19.0921984 L11.5510143,19.0785409 C11.4726651,19.7568197 11.394316,20.4350985 11.3158956,21.1133065" id="Fill-713" fill="#E7A77B"></path>
                                    <path d="M3.17683311,21.1951104 C3.03899265,20.4895872 2.9011522,19.784064 2.76331174,19.0785409 L0.00465244582,19.0921984 C-0.00246373665,19.6385012 0.0321209102,20.296966 0.162347049,21.0315734 C0.269303272,21.6353371 0.418671942,22.1654348 0.573377749,22.6121718 C1.9199018,22.8184506 3.32897709,22.9981927 4.79718785,23.1417034 C7.51435981,23.4072122 10.0717023,23.5130053 12.4394697,23.5114654 C10.6200042,22.9345046 8.66312514,22.3883433 6.57495256,21.9036057 C5.41067394,21.6333557 4.27671027,21.3987002 3.17683311,21.1951104" id="Fill-714" fill="#FFBD86"></path>
                                    <path d="M3.1656607,21.1379326 C3.16558954,21.1376495 3.16551838,21.137225 3.16544721,21.1369419 C3.41259223,21.0968891 3.6639358,21.0595962 3.91940675,21.0256292 C3.91862397,21.0256999 3.91791235,21.0258415 3.91720073,21.0259122 C3.77658496,21.046434 3.63561339,21.0672388 3.49428601,21.0883266 C3.38441215,21.104744 3.2748941,21.1213029 3.1656607,21.1379326 M6.56940194,20.8134425 C6.77968513,20.8044425 6.99217434,20.7989425 7.20644259,20.7973425 L7.20644259,20.8115425 C7.1950567,20.8114425 7.18367081,20.8113425 7.17221375,20.8112425 C7.09528782,20.8105425 7.01096106,20.8099425 6.91909114,20.8099425 C6.81234841,20.8099425 6.69571418,20.8108425 6.56940194,20.8134425" id="Fill-724" fill="#BB8865"></path>
                                    <path d="M3.16309887,21.1382864 C3.16160448,21.1304316 3.16003892,21.1225767 3.15854452,21.1147218 C3.1455219,21.1162786 3.13627087,21.117057 3.13093373,21.117057 C3.1274468,21.117057 3.12559659,21.1167032 3.12552543,21.1159956 C3.12516962,21.1141557 3.13570157,21.1096268 3.15626734,21.1027626 C3.07500053,20.6824916 2.99373373,20.2621498 2.91246693,19.841808 C2.99679369,20.2735429 3.08112045,20.705207 3.16544721,21.1369419 C3.16551838,21.137225 3.16558954,21.1376495 3.1656607,21.1379326 C3.16480676,21.1380741 3.16395282,21.1382157 3.16309887,21.1382864" id="Fill-725" fill="#C99978"></path>
                                    <path d="M4.84166399,20.9191284 C4.84137935,20.9158025 4.8410947,20.9126888 4.84081005,20.9092921 C5.44276793,20.8475854 5.96189344,20.8221101 6.38736999,20.8121323 C6.27422269,20.8163074 6.15972331,20.821261 6.04401418,20.8272052 C5.62536917,20.8485761 5.2241588,20.8801371 4.84166399,20.9191284" id="Fill-726" fill="#EFA73B"></path>
                                    <path d="M12.2947265,23.5185249 C10.6826977,23.5165435 8.98321103,23.4644608 7.20644259,23.3463546 L7.20644259,23.3394905 C8.98577286,23.4578089 10.6872521,23.5096086 12.3014158,23.5114485 C12.2991386,23.5137837 12.2969326,23.5161897 12.2947265,23.5185249" id="Fill-739" fill="#96973D"></path>
                                    <path d="M13.8118966,21.4780273 C14.2378713,20.5297815 14.3757118,19.6702038 14.4231056,19.0992749 L14.4231767,19.0992749 C14.3764946,19.668647 14.2397927,20.5285078 13.8147431,21.4776735 C13.813818,21.477815 13.8127506,21.4779566 13.8118966,21.4780273" id="Fill-740" fill="#908B46"></path>
                                    <path d="M13.6129993,21.891788 C13.6120031,21.8915757 13.6110068,21.8914342 13.6100105,21.8912927 C13.6126435,21.8863391 13.6152765,21.8813856 13.6179095,21.8763613 C13.6884309,21.7422624 13.7529035,21.6092957 13.8118966,21.4780273 C13.8127506,21.4779566 13.813818,21.477815 13.8147431,21.4776735 C13.7548249,21.6113479 13.6892848,21.7467913 13.6174114,21.8834378 C13.615917,21.8861976 13.6144937,21.8890282 13.6129993,21.891788" id="Fill-741" fill="#808136"></path>
                                    <g id="Group-6" stroke-width="1" fill="none" transform="translate(0.246914, 0.000000)">
                                        <path d="M15.0824641,5.55601278 C15.0824641,6.60318751 11.7181465,7.4520798 7.56813122,7.4520798 C3.41811593,7.4520798 0.0537983395,6.60318751 0.0537983395,5.55601278 C0.0537983395,4.50890881 3.41811593,3.66001652 7.56813122,3.66001652 C11.7181465,3.66001652 15.0824641,4.50890881 15.0824641,5.55601278" id="Fill-704" fill="#CC8B25"></path>
                                        <path d="M5.34980366,10.9214564 C4.76200699,11.4463176 4.15542359,11.7532237 3.68717879,11.9360087 L7.41982998,13.1358935 L7.41982998,13.2418281 L7.5845696,13.1888254 L7.74930922,13.2418281 L7.74930922,13.1358935 L11.4819604,11.9360087 C11.0137156,11.7532237 10.4071322,11.4463176 9.81933554,10.9214564 C9.61410484,10.7381761 9.43904675,10.5533389 9.29031854,10.3765689 C9.24384987,9.71760886 9.19745236,9.05857803 9.15098369,8.39961796 L6.01815552,8.39954719 C5.97168684,9.05857803 5.92528933,9.71760886 5.87882066,10.3765689 C5.73009245,10.5533389 5.55503436,10.7381761 5.34980366,10.9214564" id="Fill-705" fill="#EFAE58"></path>
                                        <path d="M10.1011658,11.1630703 C10.1186618,11.1489567 10.1361578,11.1348432 10.1536538,11.1207296 C10.9940038,11.5143931 11.8344249,11.9079859 12.6748461,12.3016494 C13.0781913,12.3415607 13.7598504,12.4736782 14.246028,12.992029 C14.5614172,13.3282317 14.7496402,13.7889093 14.848911,15.862454 C14.878372,16.4781769 14.9043461,17.3289798 14.88805,18.3514577 C13.9110685,18.3469832 12.9340869,18.3425087 11.9570367,18.3379659 L11.9570368,18.3378001 C12.1661814,18.3378001 12.375326,18.3378001 12.5844706,18.3378001 C12.3852175,17.0371465 12.1859643,15.736493 11.9867112,14.4357686 C11.97561,14.985822 11.9645087,15.5358753 11.9534075,16.0859994 L11.6470558,17.8631819 L11.2718907,17.3015231 C11.324337,16.9771382 11.3768544,16.6527532 11.4293007,16.3283682 L11.4924924,16.3412473 C11.5040917,16.3436533 11.5157623,16.3447856 11.5272193,16.3447856 C11.6081303,16.3447856 11.6812135,16.2881031 11.6980077,16.20637 L11.7085397,16.1554902 C11.7277534,16.0621517 11.6666965,15.9701577 11.5729052,15.9510513 L11.4929905,15.9347754 C11.7024909,14.6398538 11.9120625,13.3447198 12.1215629,12.0497982 C12.3058009,12.136131 12.4900388,12.2223931 12.674348,12.3087259 C13.0776932,12.3486372 13.7592811,12.4807547 14.2455299,12.9991055 C14.5609191,13.3353081 14.749071,13.7959858 14.8484129,15.8695304 C14.8778027,16.483838 14.9037056,17.3321642 14.887623,18.3514577 C13.9107847,18.3469288 12.9338751,18.3424706 11.9570368,18.3380124 L11.9570368,18.3379659 C11.9451527,18.3379107 11.9332687,18.3378554 11.9213847,18.3378001 C11.9030961,19.0220939 11.8848787,19.7064585 11.8665901,20.3907523 C10.4537432,20.4010132 9.04089634,20.4113448 7.62804948,20.4225256 C7.61353246,20.4223841 7.59908661,20.4222425 7.54108973,20.4216057 C6.10845987,20.4294605 4.67590118,20.4373862 3.24334248,20.445241 C3.20683647,19.7427607 3.17025929,19.0402804 3.13368211,18.3378001 C2.17990018,18.3393569 1.22611824,18.340843 0.272407465,18.3423291 C0.261804353,17.3278476 0.289699788,16.4810075 0.320228211,15.862454 C0.421918459,13.8023546 0.598542108,13.3379972 0.92311119,12.992029 C1.40928878,12.4736782 2.0909479,12.3414899 2.49429312,12.3016494 C3.33471427,11.9079859 4.17506426,11.5143931 5.01548541,11.1207296 C5.86926601,11.8094519 6.72304661,12.4981742 7.57682721,13.1868263 C7.57816504,13.1879055 7.57951711,13.1890377 7.58079802,13.1900284 C7.57947417,13.1889613 7.57815069,13.1878938 7.57682721,13.1868263 Z M7.5845696,13.1930713 C7.58393489,13.1925804 7.58331765,13.1920895 7.58270057,13.1915899 C7.58332384,13.1920665 7.58394672,13.1925689 7.5845696,13.1930713 Z M7.58559989,13.1959019 L7.58029989,13.1977019 L7.58559989,13.2019019 L7.59089989,13.1977019 L7.58559989,13.1959019 Z" id="Combined-Shape" fill="#F9C944"></path>
                                        <path d="M3.45679012,11.7963869 C3.64108735,13.3496323 3.82538459,14.9028777 4.00974608,16.4561231 L3.50993301,17.518352 L3.60895743,19.7886962 C6.17568836,19.8455683 8.74241929,19.9024403 11.3091502,19.9592484 C11.3545177,19.1456589 11.3999494,18.3320055 11.4453168,17.518352 L10.8250808,16.5898043 C11.0850119,14.9831376 11.3450072,13.3764069 11.6049383,11.7696762 C11.2588348,11.5913281 10.9127312,11.412916 10.5666277,11.2345679 C10.3748763,12.7255097 10.1831892,14.2164515 9.99143786,15.7073294 C8.33314834,15.6895648 6.67485882,15.6716725 5.01650504,15.6538441 C4.80656813,14.1982396 4.59669549,12.7425713 4.38675858,11.2869029 C4.07676909,11.4567522 3.76677961,11.6266015 3.45679012,11.7963869" id="Fill-710" fill="#FF872C"></path>
                                        <path d="M10.5676733,5.28187067 C10.6645245,4.52560925 10.6470187,3.99883748 10.4386569,3.53164951 C10.4017239,3.44885491 9.4922758,1.49490244 7.62235653,1.46036931 C6.16659908,1.43347875 5.09703686,2.58779111 4.68863914,3.53164951 C4.51165969,3.94066897 4.50824392,4.46291181 4.61014765,5.25533394 C4.49059579,5.31215792 4.41466612,5.51779988 4.39075575,5.64291172 C4.32649662,5.97911439 4.50824392,6.408231 4.8147379,6.55782739 C4.84170823,6.71457101 4.8701018,6.87839109 4.89998976,7.0501368 C4.97841009,7.50182732 5.09874474,8.07530374 5.55410926,8.58763953 C5.6714972,8.71970547 6.30657683,9.46885851 7.56815091,9.46885851 C8.82972498,9.46885851 9.37947299,8.86128912 9.47889737,8.76504642 C10.0010117,8.25957479 10.1525864,7.63359103 10.2519283,7.10929602 C10.2901422,6.90747534 10.3262212,6.7171893 10.3598808,6.53617342 C10.642749,6.37065499 10.8070617,5.96474918 10.7455779,5.64291172 C10.7245851,5.53294351 10.6633148,5.36063168 10.5676733,5.28187067 Z" id="Fill-708" fill="#FCB75A"></path>
                                        <path d="M4.36960479,5.82549672 C4.34263763,4.92815295 4.70649634,4.03034631 4.70649634,4.03034631 C4.94159716,3.31130944 5.10962867,2.82164326 5.54106482,2.68469064 C5.73130946,2.62433743 5.91209561,2.6517707 6.03527095,2.68469064 C6.08127361,2.56483928 6.16374878,2.40194975 6.31766422,2.26350077 C6.78141688,1.8464437 7.50936237,1.99672105 7.89443758,2.07624193 C8.20083535,2.1395166 10.0777725,2.56918585 10.6478615,4.22929101 C10.6478615,4.22929101 10.9507482,5.11135994 10.6683549,6.21453395 C10.6140402,6.42658962 10.5114299,6.58898036 10.5114299,6.58898036 C10.4157702,6.74054031 10.3056361,6.84115275 10.2290367,6.90100717 C10.2599917,4.88612204 9.89820447,4.31244591 9.53871018,4.18639534 C9.04034804,4.01153492 8.65928552,4.73698478 7.65604063,4.77923915 C7.15989981,4.80011694 6.78851074,4.64086142 6.48139642,4.48160591 C6.11495157,4.29163937 5.84001045,4.10167283 5.5537478,4.21753389 C5.20349703,4.35926062 4.86227482,4.94711655 4.9997812,7.01416053 C4.92189197,6.9778916 4.79871663,6.90820395 4.69388502,6.78008699 C4.57278768,6.63223231 4.53602855,6.47953228 4.51825805,6.40179278 C4.47402827,6.20876831 4.3756386,6.02627406 4.36960479,5.82549672 Z" id="Fill-709" fill="#785549"></path>
                                        <path d="M10.0763721,0.436900717 C9.52031356,0.243571796 8.65092954,0.0140113932 7.56870051,0.0169127424 C6.5073219,0.0198140915 5.65359349,0.245270146 5.10244515,0.436900717 C4.78406715,1.17313574 4.46561799,1.90944154 4.14723998,2.64567656 L11.0315772,2.64567656 L10.0763721,0.436900717" id="Fill-733" fill="#F8C044"></path>
                                        <path d="M7.51803329,4.6195139 C4.50383189,4.62623653 1.96349707,5.07714864 0.0721580903,5.55601278 C0.0723004139,5.52898069 0.0740794595,5.48220528 0.0855365133,5.42580589 C0.0999823637,5.35468745 0.139121367,5.22299451 0.271340038,5.0730443 C1.2021367,4.01766087 2.01124665,3.5444579 2.01124665,3.5444579 C2.49692611,3.26040875 3.21316987,2.90446275 4.14723998,2.64567656 C5.05355698,2.46225469 6.17670406,2.31032306 7.46736608,2.30140672 C8.8627783,2.2918535 10.0695405,2.45213535 11.0258131,2.64567656 C11.3717307,2.75040819 11.7560758,2.88910683 12.1639753,3.073944 C12.4948067,3.22389421 12.7765363,3.37518895 13.0079546,3.51084471 C13.0079546,3.51084471 13.791304,3.97017781 14.7365465,4.91630068 C14.8145398,4.99435405 14.9308183,5.12173035 15.0181338,5.31244098 C15.0636774,5.41200679 15.0877301,5.49918879 15.1008238,5.55601278 C13.1854322,5.07099212 10.5958534,4.61264973 7.51803329,4.6195139 Z" id="Fill-734" fill="#EA9F37"></path>
                                        <path d="M10.2519283,7.10929602 C10.2901422,6.90747534 10.3262212,6.7171893 10.3598808,6.53617342 C10.642749,6.37065499 10.8070617,5.96474918 10.7455779,5.64291172 C10.7287125,5.55473901 10.6034742,5.36299621 10.5379342,5.2750358 C10.5863242,5.08043311 10.5814451,4.93854699 10.5983816,4.76191851 C12.2887596,4.9357164 13.8771251,5.24698371 15.0823929,5.55141308 C15.0824404,5.55509284 15.0822981,5.55900848 15.081966,5.56316 C15.081966,5.57327934 15.0816102,5.58332792 15.0809697,5.59344725 C15.0579844,5.89447992 14.7568276,6.17831678 14.2397658,6.42931886 C14.1979226,6.4496283 14.1545851,6.46972545 14.1099666,6.48961031 C14.0970152,6.49534224 14.0841349,6.50100341 14.0709699,6.50673534 C14.052966,6.51459021 14.0346062,6.52244509 14.0161753,6.53015843 C14.0062838,6.53433354 13.9965347,6.53843789 13.986572,6.54254224 C13.9708452,6.54905258 13.9546915,6.55563369 13.9386801,6.56207327 C13.922384,6.56858361 13.9062303,6.57502319 13.8896496,6.58153354 C13.8488739,6.59745558 13.8071019,6.61330685 13.7645471,6.62894583 C13.7531612,6.63312094 13.741633,6.63729605 13.7301759,6.64147116 C13.6908946,6.65562409 13.651044,6.66956472 13.6102683,6.68350534 C13.5857886,6.6917848 13.5611666,6.70006426 13.5361176,6.70827296 C13.5169751,6.71464177 13.4976191,6.72086906 13.4781919,6.72716711 C13.4586936,6.7333944 13.4389106,6.73962168 13.4191276,6.74584897 C13.3649735,6.76276171 13.3094672,6.77953292 13.2530359,6.79602108 C13.2343203,6.80146995 13.2156048,6.80684806 13.1966046,6.81222617 C13.1307799,6.83104956 13.063532,6.84944836 12.9948608,6.8675641 C12.9873888,6.86947475 12.9799168,6.87145615 12.9724448,6.87343756 C12.8486233,6.90577699 12.7203185,6.93698419 12.587744,6.96698838 C12.5616988,6.97293261 12.5354401,6.97880607 12.509039,6.98460877 C12.4533193,6.99685105 12.3970303,7.0089518 12.3398874,7.02076949 C12.3223104,7.02444925 12.3045911,7.02812901 12.2868007,7.031738 C12.2241071,7.04447563 12.1606307,7.05700097 12.0963004,7.06931401 C12.0642065,7.07539977 12.0316144,7.08155629 11.9991646,7.08750052 C11.9425909,7.09797368 11.8853768,7.10823455 11.8275934,7.11828312 C11.8024021,7.12267053 11.777282,7.12698717 11.7518061,7.13123305 C11.6630673,7.14630591 11.5728341,7.16088342 11.4814623,7.17496558 C11.4564845,7.17885763 11.4313644,7.18267892 11.4061731,7.18642944 C11.30676,7.20136078 11.2057102,7.21579676 11.1033795,7.22959586 C10.8151741,7.26837487 10.5159386,7.30262494 10.2068828,7.33185072 C10.2234635,7.25613259 10.238194,7.18175898 10.2519283,7.10929602 Z M15.0596834,5.41354053 C15.0511834,5.39074053 15.0417834,5.36714053 15.0315834,5.34294053 C15.0421834,5.36634053 15.0514834,5.38994053 15.0596834,5.41354053" id="Fill-762" fill="#CC8B25"></path>
                                    </g>
                                    <path d="M14.5171815,19.1077532 C14.4858703,19.1075532 14.4544879,19.1073532 14.4231767,19.1071532 C14.4233902,19.1039532 14.4235325,19.1008532 14.423746,19.0977532 L11.5866664,19.0787532 C12.5635048,19.0850532 13.5404143,19.0913532 14.5172527,19.0977532 C14.5172527,19.1010532 14.5171815,19.1043532 14.5171815,19.1077532" id="Fill-742" fill="#FFBD86"></path>
                                    <path d="M7.21572765,13.9355661 C7.21392765,13.9341661 7.21222765,13.9327661 7.21042765,13.9312661 L7.21572765,13.9295661 L7.22102765,13.9312661 C7.21922765,13.9327661 7.21742765,13.9341661 7.21572765,13.9355661" id="Fill-743" fill="#A28564"></path>
                                    <path d="M13.8689684,7.17699453 L13.8693954,7.1700596 C14.3864572,6.91905752 14.6876141,6.63522066 14.7105993,6.334188 C14.6917414,6.63783895 14.3900153,6.9240818 13.8689684,7.17699453" id="Fill-745" fill="#A68964"></path>
                                    <path d="M8.82338157,9.7502885 C8.82323925,9.74830466 8.82309693,9.74617387 8.8229546,9.74419004 C8.86373033,9.71472641 8.90415024,9.68342589 8.94414319,9.6502885 C8.94464132,9.6520519 8.94521062,9.65381531 8.94577991,9.65550525 C8.90535999,9.68893655 8.86451311,9.72045749 8.82338157,9.7502885 M9.01281435,9.59976256 C9.01224506,9.59813498 9.0116046,9.59643663 9.01096414,9.5948798 C9.04391207,9.56650319 9.07643302,9.53678206 9.108527,9.50578716 C9.13841497,9.47684443 9.16709319,9.44747712 9.19463281,9.41775598 C9.19505978,9.41952509 9.19548675,9.42115268 9.19591372,9.4229218 C9.1678048,9.45327981 9.13855729,9.48328401 9.10795771,9.51286362 C9.07671767,9.54315087 9.04497949,9.5720936 9.01281435,9.59976256 M9.26807181,9.34104714 C9.26764484,9.33941955 9.26714671,9.33779197 9.26671974,9.33616438 C9.33873551,9.25060997 9.40185605,9.16250802 9.45764692,9.07284926 L9.45800273,9.0783689 C9.40256766,9.16781537 9.33966061,9.25570502 9.26807181,9.34104714" id="Fill-746" fill="#A28564"></path>
                                    <path d="M8.94644319,9.6802798 C8.94564319,9.6779798 8.94484319,9.6755798 8.94414319,9.6731798 C8.97564319,9.6478798 9.00704319,9.6217798 9.03804319,9.5948798 C9.03894319,9.5970798 9.03984319,9.5994798 9.04064319,9.6017798 C9.00944319,9.6287798 8.97804319,9.6549798 8.94644319,9.6802798" id="Fill-747" fill="#B19764"></path>
                                    <path d="M9.196377,9.43616438 C9.1957956,9.43412523 9.19521421,9.43224921 9.19463281,9.43021006 C9.22864444,9.39921495 9.26139638,9.36781202 9.29279173,9.33616438 C9.29337312,9.3380404 9.29405142,9.33991642 9.29463281,9.34179244 C9.26314056,9.37352164 9.23038863,9.40500614 9.196377,9.43616438" id="Fill-748" fill="#B19764"></path>
                                    <path d="M10.7326533,7.99797018 L10.7330091,7.98817018 C10.8353398,7.96867018 10.9363896,7.94827018 11.0358027,7.92717018 C11.0351622,7.93057018 11.0345218,7.93397018 11.0338813,7.93727018 C10.9349664,7.95827018 10.8344147,7.97857018 10.7326533,7.99797018 M11.1096687,7.94387379 C11.1100956,7.94047379 11.1105938,7.93717379 11.1110919,7.93377379 C11.2024637,7.91387379 11.2926969,7.89327379 11.3814357,7.87197379 C11.3810087,7.87537379 11.3805817,7.87867379 11.3800836,7.88207379 C11.2912737,7.90327379 11.2011116,7.92387379 11.1096687,7.94387379 M11.455871,7.88174126 C11.4562979,7.87834126 11.4567961,7.87504126 11.457223,7.87174126 C11.5150064,7.85754126 11.5722205,7.84304126 11.6287942,7.82824126 C11.6285095,7.83154126 11.6282249,7.83484126 11.6279402,7.83814126 C11.5712243,7.85294126 11.5137967,7.86754126 11.455871,7.88174126 M11.7251473,7.83547874 C11.7254319,7.83217874 11.7256454,7.82877874 11.7259301,7.82557874 C11.7902604,7.80817874 11.8537367,7.79047874 11.9164303,7.77247874 C11.9160033,7.77577874 11.9155052,7.77917874 11.9150782,7.78257874 C11.8524558,7.80057874 11.7894064,7.81807874 11.7251473,7.83547874 M11.9683073,7.78654951 C11.9687342,7.78314951 11.9691612,7.77984951 11.969517,7.77644951 C12.0266599,7.75974951 12.082949,7.74264951 12.1386687,7.72534951 C12.1382417,7.72864951 12.1377436,7.73214951 12.1373166,7.73544951 C12.081668,7.75274951 12.025379,7.76974951 11.9683073,7.78654951 M12.2159504,7.71494711 C12.2163774,7.71254112 12.2168755,7.71013512 12.2173736,7.70772912 C12.3499481,7.67772493 12.4782529,7.64651773 12.6020745,7.6141783 C12.601861,7.61651354 12.6016475,7.61884877 12.601434,7.621184 C12.4773278,7.65359419 12.3488095,7.68480139 12.2159504,7.71494711 M12.6230672,7.64136691 C12.6235653,7.63796691 12.6239923,7.63456691 12.6244904,7.63116691 C12.6931616,7.60556691 12.7604095,7.57956691 12.8262342,7.55296691 C12.8261631,7.55626691 12.8260919,7.55946691 12.8260207,7.56276691 C12.7598402,7.58946691 12.6921653,7.61556691 12.6230672,7.64136691 M12.8824521,7.56718971 C12.8825232,7.56388971 12.8825944,7.56068971 12.8826655,7.55748971 C12.9390969,7.53418971 12.9946031,7.51048971 13.0487572,7.48658971 C13.0488284,7.48828971 13.0488284,7.49018971 13.0488996,7.49188971 C13.0488996,7.49328971 13.0488996,7.49468971 13.0489707,7.49608971 C12.9946743,7.52008971 12.9389545,7.54388971 12.8824521,7.56718971 M13.1080216,7.4852137 C13.1079216,7.4820137 13.1078216,7.4789137 13.1078216,7.4757137 C13.1351216,7.4668137 13.1623216,7.4580137 13.1892216,7.4490137 C13.1894216,7.4522137 13.1896216,7.4553137 13.1898216,7.4585137 C13.1626216,7.4675137 13.1356216,7.4763137 13.1080216,7.4852137 M13.2402537,7.4510119 C13.2401114,7.4479119 13.2400402,7.4447119 13.2398979,7.4416119 C13.2806736,7.4219119 13.3205242,7.4022119 13.3598056,7.3822119 C13.3597344,7.3854119 13.3596632,7.3886119 13.3595921,7.3919119 C13.3205242,7.4118119 13.2807448,7.4315119 13.2402537,7.4510119 M13.3939632,7.39897428 C13.3940344,7.39577428 13.3941056,7.39247428 13.3941767,7.38927428 C13.4367315,7.36717428 13.4785035,7.34477428 13.5192792,7.32227428 C13.5191369,7.32547428 13.5190657,7.32877428 13.5189946,7.33207428 C13.4782188,7.35457428 13.436518,7.37687428 13.3939632,7.39897428 M13.5680962,7.32058298 C13.5681962,7.31738298 13.5682962,7.31408298 13.5683962,7.31088298 C13.5908962,7.30178298 13.6135962,7.29248298 13.6356962,7.28328298 C13.6354962,7.28648298 13.6353962,7.28978298 13.6352962,7.29298298 C13.6129962,7.30228298 13.5907962,7.31138298 13.5680962,7.32058298 M13.6455203,7.29037608 C13.6456203,7.28707608 13.6458203,7.28387608 13.6459203,7.28057608 C13.6718203,7.26967608 13.6976203,7.25857608 13.7229203,7.24747608 C13.7227203,7.25077608 13.7225203,7.25407608 13.7223203,7.25737608 C13.6971203,7.26837608 13.6714203,7.27947608 13.6455203,7.29037608 M13.7397386,7.2647596 C13.7397386,7.2615596 13.7396674,7.2584596 13.7395962,7.2552596 C13.7842147,7.2271596 13.8275522,7.1987596 13.8693954,7.1700596 L13.8689684,7.1798596 C13.8273388,7.2084596 13.7842147,7.2367596 13.7397386,7.2647596" id="Fill-749" fill="#A58364"></path>
                                    <path d="M12.8260207,7.56946182 C12.8261207,7.56616182 12.8262207,7.56296182 12.8263207,7.55966182 C12.8530207,7.55206182 12.8793207,7.54446182 12.9056207,7.53676182 C12.9055207,7.53996182 12.9054207,7.54316182 12.9053207,7.54646182 C12.8790207,7.55416182 12.8527207,7.56186182 12.8260207,7.56946182" id="Fill-750" fill="#B19764"></path>
                                    <path d="M13.0490572,7.50380785 C13.0489572,7.50240785 13.0489572,7.50100785 13.0489572,7.49960785 C13.0488572,7.49790785 13.0488572,7.49600785 13.0487572,7.49430785 C13.0765572,7.48550785 13.1043572,7.47670785 13.1317572,7.46790785 C13.1317572,7.47110785 13.1318572,7.47420785 13.1319572,7.47740785 C13.1045572,7.48630785 13.0768572,7.49510785 13.0490572,7.50380785" id="Fill-751" fill="#B19764"></path>
                                    <path d="M13.1663203,7.46874608 C13.1661293,7.46554608 13.1659383,7.46244608 13.1657473,7.45924608 C13.1993671,7.44764608 13.2324139,7.43594608 13.2652697,7.42424608 C13.2654607,7.42734608 13.2655563,7.43054608 13.2657473,7.43364608 C13.2330825,7.44534608 13.1996537,7.45714608 13.1663203,7.46874608 M13.3595921,7.39708657 C13.3596921,7.39378657 13.3597921,7.39058657 13.3598921,7.38738657 C13.3759921,7.38148657 13.3921921,7.37558657 13.4081921,7.36968657 C13.4080921,7.37288657 13.4079921,7.37618657 13.4078921,7.37938657 C13.3918921,7.38528657 13.3757921,7.39118657 13.3595921,7.39708657 M13.5189946,7.34011401 C13.5190946,7.33681401 13.5191946,7.33351401 13.5193946,7.33031401 C13.5426946,7.32111401 13.5653946,7.31201401 13.5882946,7.30281401 C13.5881946,7.30601401 13.5880946,7.30931401 13.5879946,7.31251401 C13.5650946,7.32171401 13.5421946,7.33091401 13.5189946,7.34011401 M13.615917,7.29809917 C13.616017,7.29489917 13.616117,7.29159917 13.616317,7.28839917 C13.630317,7.28259917 13.644017,7.27679917 13.657917,7.27089917 C13.657817,7.27419917 13.657617,7.27739917 13.657517,7.28069917 C13.643717,7.28649917 13.629817,7.29239917 13.615917,7.29809917" id="Fill-752" fill="#B19764"></path>
                                    <path d="M13.7001726,7.26445105 C13.7003726,7.26115105 13.7005726,7.25785105 13.7007726,7.25455105 C13.7192726,7.24645105 13.7373726,7.23845105 13.7555726,7.23035105 C13.7556726,7.23355105 13.7557726,7.23665105 13.7557726,7.23985105 C13.7373726,7.24805105 13.7189726,7.25625105 13.7001726,7.26445105" id="Fill-753" fill="#B19764"></path>
                                    <path d="M12.601434,7.62650484 C12.601734,7.62320484 12.602034,7.61990484 12.602334,7.61660484 C12.612834,7.61380484 12.623334,7.61100484 12.633834,7.60830484 C12.633134,7.61170484 12.632534,7.61510484 12.631834,7.61850484 C12.621734,7.62110484 12.611534,7.62380484 12.601434,7.62650484" id="Fill-754" fill="#B19764"></path>
                                    <path d="M12.1373166,7.74272912 C12.1378499,7.73942912 12.1384721,7.73592912 12.1390055,7.73262912 C12.1719833,7.72442912 12.2047833,7.71612912 12.2373166,7.70772912 C12.2366944,7.71112912 12.2360721,7.71452912 12.2355388,7.71792912 C12.2030055,7.72622912 12.1702055,7.73452912 12.1373166,7.74272912" id="Fill-755" fill="#B19764"></path>
                                    <path d="M11.9150782,7.78711023 C11.9156782,7.78371023 11.9163782,7.78031023 11.9169782,7.77701023 C11.9419782,7.77191023 11.9668782,7.76671023 11.9915782,7.76151023 C11.9910782,7.76491023 11.9904782,7.76821023 11.9898782,7.77161023 C11.9651782,7.77671023 11.9399782,7.78191023 11.9150782,7.78711023" id="Fill-756" fill="#B19764"></path>
                                    <path d="M11.6279402,7.84565475 C11.6282307,7.84235475 11.6285212,7.83905475 11.6288117,7.83575475 C11.6619272,7.82735475 11.6951879,7.81865475 11.7279402,7.81005475 C11.7276498,7.81325475 11.7274319,7.81665475 11.7271414,7.81995475 C11.6943164,7.82855475 11.661201,7.83715475 11.6279402,7.84565475" id="Fill-757" fill="#B19764"></path>
                                    <path d="M11.3800836,7.88742386 C11.3807294,7.88402386 11.3812829,7.88072386 11.3818364,7.87732386 C11.4148622,7.87132386 11.4474268,7.86522386 11.4800836,7.85902386 C11.4795301,7.86232386 11.4788843,7.86562386 11.4783308,7.86902386 C11.4457663,7.87522386 11.4130172,7.88132386 11.3800836,7.88742386" id="Fill-758" fill="#B19764"></path>
                                    <path d="M11.0338813,7.94200632 C11.0347108,7.93870632 11.0355403,7.93530632 11.0363698,7.93190632 C11.0689965,7.92660632 11.1015311,7.92120632 11.1338813,7.91570632 C11.1332362,7.91910632 11.132591,7.92240632 11.132038,7.92580632 C11.0994113,7.93120632 11.0667846,7.93670632 11.0338813,7.94200632" id="Fill-759" fill="#B19764"></path>
                                    <path d="M14.7372226,6.30875382 L14.7120226,6.30235382 C14.7121226,6.30115382 14.7121226,6.29995382 14.7121226,6.29865382 C14.7121226,6.29655382 14.7120226,6.29425382 14.7120226,6.29215382 C14.7194226,6.29395382 14.7273226,6.29595382 14.7347226,6.29785382 C14.7355226,6.30155382 14.7364226,6.30515382 14.7372226,6.30875382" id="Fill-760" fill="#A68964"></path>
                                    <path d="M10.6589427,3.3875173 C10.6578427,3.3871173 10.6566427,3.3868173 10.6554427,3.3864173 L10.6585427,3.3864173 L10.6589427,3.3875173" id="Fill-761" fill="#BBA88F"></path>
                                    <path d="M10.5380257,21.0010031 C10.396556,20.9828873 10.2539477,20.9657623 10.1101297,20.9498403 C9.50831414,20.8830385 8.91774215,20.8397305 8.34019278,20.8168028 C8.33471332,20.7122127 8.32923386,20.6076934 8.3237544,20.5031033 C9.16972617,20.5218559 9.92987678,20.597574 10.5844232,20.6938139 C10.5689811,20.7962103 10.5534679,20.8986067 10.5380257,21.0010031" id="Fill-782" fill="#727C88"></path>
                                    <path d="M11.3194537,21.1251242 C10.5942436,21.0256292 8.94371622,20.8201287 7.20644259,20.8073911 L7.20644259,20.7973425 C7.25091873,20.7971302 7.29546603,20.7969887 7.34015566,20.7969887 C7.66899445,20.7969887 8.00245876,20.8034283 8.34019278,20.8168028 C8.91774215,20.8397305 9.50831414,20.8830385 10.1101297,20.9498403 C10.2539477,20.9657623 10.396556,20.9828873 10.5380257,21.0010031 C10.801538,21.0348286 11.0608517,21.0724046 11.3158956,21.1133065 C11.3193826,21.0835854 11.3227983,21.0537935 11.3262141,21.0240723 C11.3240081,21.0577563 11.3216598,21.0914403 11.3194537,21.1251242" id="Fill-783" fill="#A7795B"></path>
                                    <path d="M13.4865448,22.1212777 C13.4855485,22.1208531 13.4846234,22.1204285 13.4836983,22.1200039 C13.5263954,22.0459133 13.5685944,21.9696999 13.6100105,21.8912927 C13.6110068,21.8914342 13.6120031,21.8915757 13.6129993,21.891788 C13.571512,21.9704075 13.529313,22.0469041 13.4865448,22.1212777" id="Fill-1107" fill="#6B6C31"></path>
                                </g>
                            </g>
                        </g>
                    </g>
                </g>
            </g>
            <g id="Smooth-Corners" fill="#000000">
                <path d="M5.70865064,-2.30636319e-16 C3.72362845,1.34006343e-16 3.00381143,0.206682025 2.27811699,0.594787661 C1.55242254,0.982893297 0.982893297,1.55242254 0.594787661,2.27811699 C0.206682025,3.00381143 -8.93375619e-17,3.72362845 1.53757546e-16,5.70865064 L0,0 L5.70865064,0 Z M14.2913494,0 L20,0 L20,5.70865064 C20,3.72362845 19.793318,3.00381143 19.4052123,2.27811699 C19.0171067,1.55242254 18.4475775,0.982893297 17.721883,0.594787661 C16.9961886,0.206682025 16.2763716,-1.34006343e-16 14.2913494,2.30636319e-16 Z M20,14.2913494 L20,20 L14.2913494,20 C16.2763716,20 16.9961886,19.793318 17.721883,19.4052123 C18.4475775,19.0171067 19.0171067,18.4475775 19.4052123,17.721883 C19.793318,16.9961886 20,16.2763716 20,14.2913494 Z M5.70865064,20 L0,20 L0,14.2913494 C8.93375619e-17,16.2763716 0.206682025,16.9961886 0.594787661,17.721883 C0.982893297,18.4475775 1.55242254,19.0171067 2.27811699,19.4052123 C3.00381143,19.793318 3.72362845,20 5.70865064,20 Z"></path>
            </g>
        </g>
    </g>
</svg>